<svg width="65" height="65" viewBox="0 0 65 65" fill="none" xmlns="http://www.w3.org/2000/svg">
<path d="M32.4453 40.5668C50.1184 40.5668 64.4453 36.9831 64.4453 32.5623C64.4453 28.1416 50.1184 24.5579 32.4453 24.5579C14.7722 24.5579 0.445312 28.1416 0.445312 32.5623C0.445312 36.9831 14.7722 40.5668 32.4453 40.5668Z" fill="#00AD66"/>
<path d="M32.4453 18.5456C50.1184 18.5456 64.4453 16.7617 64.4453 14.5611C64.4453 12.3606 50.1184 10.5768 32.4453 10.5768C14.7722 10.5768 0.445312 12.3606 0.445312 14.5611C0.445312 16.7617 14.7722 18.5456 32.4453 18.5456Z" fill="#00AD66"/>
<path d="M32.4453 4.56441C50.1184 4.56441 64.4453 3.6726 64.4453 2.57233C64.4453 1.47206 50.1184 0.580078 32.4453 0.580078C14.7722 0.580078 0.445312 1.47206 0.445312 2.57233C0.445312 3.6726 14.7722 4.56441 32.4453 4.56441Z" fill="#00AD66"/>
<path d="M32.4453 54.5833C50.1184 54.5833 64.4453 52.7996 64.4453 50.599C64.4453 48.3985 50.1184 46.6145 32.4453 46.6145C14.7722 46.6145 0.445312 48.3985 0.445312 50.599C0.445312 52.7996 14.7722 54.5833 32.4453 54.5833Z" fill="#00AD66"/>
<path d="M32.4453 64.5801C50.1184 64.5801 64.4453 63.6881 64.4453 62.5878C64.4453 61.4876 50.1184 60.5956 32.4453 60.5956C14.7722 60.5956 0.445312 61.4876 0.445312 62.5878C0.445312 63.6881 14.7722 64.5801 32.4453 64.5801Z" fill="#00AD66"/>
</svg>
